#define arrange_width 24
#define arrange_height 16
static unsigned char arrange_bits[] = {
   0x00, 0x00, 0x00, 0x3e, 0xf8, 0x00, 0x22, 0x88, 0x00, 0xa2, 0x8a, 0x00,
   0x22, 0x88, 0x00, 0x3e, 0xf8, 0x00, 0x00, 0x00, 0x00, 0x08, 0x00, 0x00,
   0x00, 0x00, 0x00, 0x3e, 0x00, 0x00, 0x22, 0x00, 0x00, 0x22, 0x00, 0xff,
   0x22, 0x00, 0x7e, 0x3e, 0x00, 0x3c, 0x00, 0x00, 0x18, 0x00, 0x00, 0x00};
