#define bends_mode_width 16
#define bends_mode_height 16
static unsigned char bends_mode_bits[] = {
   0x00, 0x00, 0x00, 0x00, 0x00, 0x00, 0x00, 0x00, 0x00, 0x00, 0x40, 0x00,
   0xa0, 0x00, 0x10, 0x01, 0x08, 0x82, 0x04, 0x44, 0x02, 0x28, 0x01, 0x10,
   0x00, 0x00, 0x00, 0x00, 0x00, 0x00, 0x00, 0x00};
