#define clean_up_width 24
#define clean_up_height 16
static unsigned char clean_up_bits[] = {
   0x00, 0x00, 0x00, 0xe2, 0x23, 0x00, 0x1c, 0x1c, 0x00, 0x0c, 0x18, 0x00,
   0x14, 0x14, 0x00, 0x22, 0x22, 0x00, 0x42, 0x21, 0x00, 0x82, 0x20, 0x00,
   0x42, 0x21, 0x00, 0x22, 0x22, 0x00, 0x14, 0x14, 0x00, 0x0c, 0x18, 0xff,
   0x1c, 0x1c, 0x7e, 0xe2, 0x23, 0x3c, 0x00, 0x00, 0x18, 0x00, 0x00, 0x00};
