#define create_mode_width 16
#define create_mode_height 16
static unsigned char create_mode_bits[] = {
   0x00, 0x00, 0x00, 0x3e, 0x00, 0x3e, 0x00, 0x3e, 0x00, 0x3e, 0x00, 0x3e,
   0x00, 0x03, 0x80, 0x01, 0xc0, 0x00, 0x60, 0x00, 0x3e, 0x00, 0x3e, 0x00,
   0x3e, 0x00, 0x3e, 0x00, 0x3e, 0x00, 0x00, 0x00};
