#define directed_width 16
#define directed_height 16
static char directed_bits[] = {
  0x00, 0x00, 0x00, 0x00, 0x00, 0x00, 0x00, 0x08, 0x00, 0x10, 0x00, 0x20, 
  0x00, 0x40, 0xff, 0xff, 0x00, 0x40, 0x00, 0x20, 0x00, 0x10, 0x00, 0x08, 
  0x00, 0x00, 0x00, 0x00, 0x00, 0x00, 0x00, 0x00, };
