#define down_arrow.xbm_width 16
#define down_arrow.xbm_height 16
static unsigned char down_arrow.xbm_bits[] = {
   0x00, 0x00, 0x00, 0x00, 0xe0, 0x07, 0xe0, 0x07, 0xe0, 0x07, 0xe0, 0x07,
   0xe0, 0x07, 0xe0, 0x07, 0xfc, 0x3f, 0xf8, 0x1f, 0xf0, 0x0f, 0xe0, 0x07,
   0xc0, 0x03, 0x80, 0x01, 0x00, 0x00, 0x00, 0x00};
