#define eaglewing_width 126
#define eaglewing_height 117
static char eaglewing_bits[] = {
 0x00,0x00,0x00,0x00,0x00,0x00,0x00,0x00,0x00,0x00,0x00,0x00,0x00,0x00,0x00,
 0x00,0x00,0x00,0x00,0x00,0x00,0x00,0x00,0x00,0x00,0x00,0x00,0x00,0x00,0x00,
 0x00,0x00,0x00,0x00,0x00,0x00,0x00,0x00,0x00,0x60,0x07,0x00,0x00,0x00,0x00,
 0x00,0x00,0x00,0x00,0x00,0x00,0x00,0x00,0x00,0xf0,0xff,0xff,0x0f,0x00,0x00,
 0x00,0x00,0x00,0x00,0x00,0x00,0x00,0x00,0x00,0x00,0x7f,0x00,0x00,0xfc,0x01,
 0x00,0x00,0x00,0x00,0x00,0x00,0x00,0x00,0x00,0x00,0xf0,0x03,0x00,0x00,0x80,
 0x0f,0x00,0x00,0x00,0x00,0x00,0x00,0x00,0x00,0x00,0x00,0x3e,0x00,0x00,0x00,
 0x00,0xf8,0x00,0x00,0x00,0x00,0x00,0x00,0x00,0x00,0x00,0x80,0x03,0x00,0x00,
 0x00,0x00,0xc0,0x03,0x00,0x00,0x00,0x00,0x00,0x00,0x00,0x00,0xe0,0x00,0x00,
 0x00,0x00,0x00,0x00,0x0f,0x00,0x00,0x00,0x00,0x00,0x00,0x00,0x00,0x18,0x00,
 0x00,0x00,0x00,0x00,0x00,0x38,0x00,0x00,0x00,0x00,0x00,0x00,0x00,0x00,0x0e,
 0x00,0x00,0x00,0x00,0x00,0x00,0x70,0x00,0x00,0x00,0x00,0x00,0x00,0x00,0x80,
 0x03,0x00,0x00,0x00,0x00,0x00,0x00,0xc0,0x01,0x00,0x00,0x00,0x00,0x00,0x00,
 0xe0,0x00,0x00,0x00,0x00,0x00,0x00,0x00,0x00,0x07,0x00,0x00,0x00,0x00,0x00,
 0x00,0x70,0x00,0x00,0x00,0x00,0x00,0x00,0x00,0x00,0x1c,0x00,0x00,0x00,0x00,
 0x00,0x00,0x1c,0x00,0x00,0x00,0x00,0x00,0x00,0x00,0x00,0x38,0x00,0x00,0x00,
 0x00,0x00,0x00,0x06,0x00,0x00,0x00,0x00,0x00,0x00,0x00,0x00,0x60,0x00,0x00,
 0x00,0x00,0x00,0x00,0x03,0x00,0x00,0x00,0x00,0x00,0x00,0x00,0x00,0xc0,0x01,
 0x00,0x00,0x00,0x00,0x80,0x01,0x00,0x00,0x00,0x00,0x00,0x00,0x00,0x00,0x80,
 0x03,0x00,0x00,0x00,0x00,0xc0,0x00,0x00,0x00,0x00,0x00,0x00,0x00,0x00,0x00,
 0x00,0x06,0x00,0x00,0x00,0x00,0x60,0x00,0x00,0x00,0x00,0x00,0x00,0x00,0x00,
 0x00,0x00,0x0e,0x00,0x00,0x00,0x00,0x18,0x00,0x00,0x00,0x00,0x00,0x00,0x00,
 0x00,0x00,0x00,0x18,0x00,0x00,0x00,0x00,0x0c,0x00,0x00,0x00,0x00,0x00,0x00,
 0x00,0x00,0x00,0x00,0x30,0x00,0x00,0x00,0x00,0x06,0x00,0x00,0x00,0x00,0x00,
 0x00,0x00,0x00,0x00,0x00,0x60,0x00,0x00,0x00,0x00,0x03,0x00,0x00,0x00,0x00,
 0x00,0x00,0x00,0x00,0x00,0x00,0xc0,0x00,0x00,0x00,0x00,0x03,0x00,0x00,0x00,
 0x00,0x00,0x00,0x00,0x00,0x00,0x00,0xc0,0x01,0x00,0x00,0x80,0x01,0x00,0x00,
 0x00,0x00,0x00,0x00,0x00,0x00,0x00,0x00,0x80,0x01,0x00,0x00,0xc0,0x00,0x00,
 0x00,0x00,0x00,0x00,0x00,0x00,0x00,0x00,0x00,0x00,0x03,0x00,0x00,0x60,0x00,
 0x00,0x00,0x00,0x00,0x00,0x03,0x00,0x00,0x00,0x00,0x00,0x06,0x00,0x00,0x20,
 0x00,0x00,0x00,0x00,0x00,0x00,0x03,0x00,0x00,0x00,0x00,0x00,0x0c,0x00,0x00,
 0x30,0x00,0x00,0x00,0x00,0x00,0x00,0x03,0x00,0x00,0x00,0x00,0x00,0x0c,0x00,
 0x00,0x18,0x00,0x00,0x00,0x00,0x00,0x00,0x03,0x00,0x00,0x00,0x00,0x00,0x18,
 0x00,0x00,0x08,0x00,0x00,0x00,0x00,0x00,0x00,0x07,0x00,0x00,0x00,0x00,0x00,
 0x30,0x00,0x00,0x0c,0x00,0x00,0x00,0x00,0x00,0x80,0x07,0x00,0x00,0x00,0x00,
 0x00,0x30,0x00,0x00,0x04,0x00,0x00,0x00,0x00,0x00,0x00,0x07,0x00,0x00,0x00,
 0x00,0x00,0x60,0x00,0x00,0xc6,0xff,0xff,0xff,0xff,0xff,0x00,0xc7,0xff,0xff,
 0xff,0xff,0xff,0x63,0x00,0x00,0x83,0xff,0xff,0xff,0xff,0xff,0x03,0xc7,0xef,
 0xfe,0xff,0xff,0xff,0xc3,0x00,0x00,0x03,0xe0,0xff,0xfe,0x3f,0x80,0x07,0xe7,
 0xff,0xf0,0x3f,0x02,0x00,0xc0,0x00,0x00,0x83,0x07,0x00,0xf0,0xff,0x7f,0x07,
 0xe7,0xff,0xff,0x03,0x00,0x00,0x80,0x01,0x80,0x01,0xff,0xff,0x1e,0x00,0xff,
 0x07,0xe7,0xff,0xff,0x7f,0xfe,0xff,0x81,0x01,0x80,0x00,0xfc,0xff,0xff,0xbf,
 0x70,0x0f,0xf7,0x01,0xfc,0x1f,0x00,0x00,0x00,0x03,0xc0,0x00,0x00,0x00,0xf8,
 0x3f,0x7f,0xce,0xff,0xfe,0x0f,0x00,0x40,0xc1,0x00,0x03,0xc0,0x00,0xfc,0xff,
 0x19,0x0c,0x70,0xce,0x00,0xfe,0xff,0x9f,0xff,0x7f,0x00,0x03,0x40,0x00,0xe0,
 0xff,0xf9,0xff,0x7f,0x1f,0xdc,0x30,0xff,0x03,0x00,0x00,0x00,0x06,0x40,0x00,
 0x00,0x00,0x80,0xff,0xff,0x07,0xc9,0xf3,0xff,0xbf,0x3f,0x38,0x00,0x06,0x60,
 0x00,0xe0,0xff,0x0f,0x80,0xff,0x03,0x00,0xf6,0xff,0x8f,0xff,0x1f,0x00,0x04,
 0x20,0x00,0x00,0x00,0x87,0xff,0x80,0x11,0x14,0x06,0x3e,0x80,0x01,0x00,0x00,
 0x0c,0x30,0x00,0x80,0x01,0x00,0x1c,0xfc,0xb0,0x7f,0xec,0xff,0xcf,0xef,0x03,
 0x00,0x0c,0x30,0x00,0x00,0xff,0x7f,0xfe,0x78,0xf0,0xc0,0xcc,0xff,0x01,0x00,
 0x00,0x00,0x0c,0x30,0x00,0x00,0xf0,0x1f,0xbc,0x71,0x70,0x88,0x1d,0xfe,0xf0,
 0x01,0x00,0x00,0x08,0x30,0x00,0x00,0x3c,0xd8,0xfd,0x31,0x90,0x3f,0x9f,0x7f,
 0xf8,0x7f,0x00,0x00,0x08,0x10,0x00,0x00,0xf0,0x7f,0x70,0xbb,0x80,0x7f,0x1f,
 0xc0,0x1f,0x00,0x00,0x00,0x18,0x10,0x00,0x00,0x00,0x80,0xe7,0x91,0xa0,0x7f,
 0x9f,0x8c,0xff,0x01,0x00,0x00,0x18,0x10,0x00,0x00,0x00,0xfe,0x09,0x3f,0xb0,
 0x6f,0x3e,0xf9,0x00,0x00,0x00,0x00,0x18,0x18,0x00,0x00,0x00,0x00,0xcf,0x39,
 0xba,0x6f,0x3e,0xff,0x00,0x00,0x00,0x00,0x18,0x18,0x00,0x00,0x00,0x00,0x38,
 0x3f,0xbe,0x6f,0x9f,0x7f,0x00,0x00,0x00,0x00,0x18,0x08,0x00,0x00,0x00,0x00,
 0x1c,0xe0,0xbf,0x3d,0x1f,0x0f,0x00,0x00,0x00,0x00,0x10,0x08,0x00,0x00,0x00,
 0x00,0xc0,0xc7,0xff,0x34,0x1f,0x00,0x00,0x00,0x00,0x00,0x10,0x08,0x00,0x00,
 0x00,0x00,0x00,0xe0,0xd9,0xf0,0x1f,0x00,0x00,0x00,0x00,0x00,0x10,0x08,0x00,
 0x00,0x00,0x00,0x00,0x00,0x40,0xe0,0x0f,0x00,0x00,0x00,0x00,0x00,0x10,0x08,
 0x00,0x00,0x00,0x00,0x00,0x00,0x40,0xf2,0x0f,0x00,0x00,0x00,0x00,0x00,0x10,
 0x08,0x00,0x00,0x00,0x00,0x00,0x00,0x20,0xf3,0x07,0x00,0x00,0x00,0x00,0x00,
 0x10,0x08,0x00,0x00,0x00,0x00,0x00,0x00,0xb0,0xd3,0x03,0x00,0x00,0x00,0x00,
 0x00,0x10,0x08,0x00,0x00,0x00,0x00,0x00,0x00,0x38,0xc3,0x03,0x00,0x00,0x00,
 0x00,0x00,0x10,0x18,0x00,0x00,0x00,0x00,0x00,0x00,0x5e,0xe3,0x00,0x00,0x00,
 0x00,0x00,0x00,0x10,0x18,0x00,0x00,0x00,0x00,0x00,0x00,0x3f,0xe3,0x00,0x00,
 0x00,0x00,0x00,0x00,0x18,0x18,0x00,0x00,0x00,0x00,0x00,0xc0,0x3f,0x75,0x00,
 0x00,0x00,0x00,0x00,0x00,0x18,0x10,0x00,0x00,0x00,0x00,0x00,0xc0,0x3f,0x04,
 0x00,0x00,0x00,0x00,0x00,0x00,0x18,0x10,0x00,0x00,0x00,0x00,0x00,0xe0,0x3f,
 0x24,0x00,0x00,0x00,0x00,0x00,0x00,0x18,0x30,0x00,0x00,0x00,0x00,0x00,0xf0,
 0x3f,0x34,0x00,0x00,0x00,0x00,0x00,0x00,0x08,0x30,0x00,0x00,0x00,0x00,0x00,
 0xf0,0x7f,0x1c,0x00,0x00,0x00,0x00,0x00,0x00,0x08,0x30,0x00,0x00,0x00,0x00,
 0x00,0xf0,0x9b,0x1c,0x00,0x00,0x00,0x00,0x00,0x00,0x08,0x30,0x00,0x00,0x00,
 0x00,0x00,0xf8,0x9b,0x18,0x00,0x00,0x00,0x00,0x00,0x00,0x0c,0x30,0x00,0x00,
 0x00,0x00,0x00,0xf8,0x19,0x39,0x00,0x00,0x00,0x00,0x00,0x00,0x04,0x20,0x00,
 0x00,0x00,0x00,0x00,0xf8,0x1b,0x39,0x00,0x00,0x00,0x00,0x00,0x00,0x04,0x60,
 0x00,0x00,0x00,0x00,0x00,0xf0,0x1f,0x4b,0x00,0x00,0x00,0x00,0x00,0x00,0x04,
 0x40,0x00,0x00,0x00,0x00,0x00,0xf0,0x1f,0x40,0x00,0x00,0x00,0x00,0x00,0x00,
 0x06,0xc0,0x00,0x00,0x00,0x00,0x00,0xf0,0x1f,0xc0,0x00,0x00,0x00,0x00,0x00,
 0x00,0x02,0xc0,0x00,0x00,0x00,0x00,0x00,0xe0,0x1f,0xc0,0x00,0x00,0x00,0x00,
 0x00,0x00,0x03,0xc0,0x00,0x00,0x00,0x00,0x00,0xe0,0x0f,0x60,0x00,0x00,0x00,
 0x00,0x00,0x00,0x01,0x80,0x01,0x00,0x00,0x00,0x00,0xc0,0x0f,0x30,0x00,0x00,
 0x00,0x00,0x00,0x00,0x01,0x00,0x01,0x00,0x00,0x00,0x00,0x80,0x07,0x1c,0x00,
 0x00,0x00,0x00,0x00,0x80,0x01,0x00,0x03,0x00,0x00,0x00,0x00,0x00,0x07,0x0f,
 0x00,0x00,0x00,0x00,0x00,0x80,0x00,0x00,0x03,0x00,0x00,0x00,0x00,0x00,0x06,
 0x0f,0x00,0x00,0x00,0x00,0x00,0xc0,0x00,0x00,0x02,0x00,0x00,0x00,0x00,0x00,
 0x83,0x0f,0x00,0x00,0x00,0x00,0x00,0x40,0x00,0x00,0x06,0x00,0x00,0x00,0x00,
 0x00,0xc3,0x1f,0x00,0x00,0x00,0x00,0x00,0x60,0x00,0x00,0x0c,0x00,0x00,0x00,
 0x00,0x80,0xc1,0x3c,0x00,0x00,0x00,0x00,0x00,0x20,0x00,0x00,0x0c,0x00,0x00,
 0x00,0x00,0xc0,0xe0,0x3c,0x00,0x00,0x00,0x00,0x00,0x30,0x00,0x00,0x18,0x00,
 0x00,0x00,0x00,0x40,0x90,0x3c,0x00,0x00,0x00,0x00,0x00,0x18,0x00,0x00,0x10,
 0x00,0x00,0x00,0x00,0x20,0x8c,0x3c,0x00,0x00,0x00,0x00,0x00,0x08,0x00,0x00,
 0x30,0x00,0x00,0x00,0x00,0x30,0x83,0x7c,0x00,0x00,0x00,0x00,0x00,0x0c,0x00,
 0x00,0x60,0x00,0x00,0x00,0x00,0xe0,0x81,0x3c,0x00,0x00,0x00,0x00,0x00,0x04,
 0x00,0x00,0x60,0x00,0x00,0x00,0x00,0x40,0x80,0x38,0x00,0x00,0x00,0x00,0x00,
 0x02,0x00,0x00,0xc0,0x00,0x00,0x00,0x00,0x00,0x80,0x38,0x00,0x00,0x00,0x00,
 0x00,0x03,0x00,0x00,0x80,0x01,0x00,0x00,0x00,0x00,0x80,0x38,0x00,0x00,0x00,
 0x00,0x80,0x01,0x00,0x00,0x00,0x03,0x00,0x00,0x00,0x00,0x80,0x38,0x00,0x00,
 0x00,0x00,0xc0,0x00,0x00,0x00,0x00,0x06,0x00,0x00,0x00,0x00,0x80,0x1c,0x00,
 0x00,0x00,0x00,0x60,0x00,0x00,0x00,0x00,0x0c,0x00,0x00,0x00,0x00,0x80,0x1c,
 0x00,0x00,0x00,0x00,0x30,0x00,0x00,0x00,0x00,0x18,0x00,0x00,0x00,0x00,0x00,
 0x0c,0x00,0x00,0x00,0x00,0x18,0x00,0x00,0x00,0x00,0x30,0x00,0x00,0x00,0x00,
 0x00,0x0c,0x00,0x00,0x00,0x00,0x0c,0x00,0x00,0x00,0x00,0x60,0x00,0x00,0x00,
 0x00,0x20,0x00,0x00,0x00,0x00,0x00,0x06,0x00,0x00,0x00,0x00,0xc0,0x00,0x00,
 0x00,0x00,0x30,0x00,0x00,0x00,0x00,0x00,0x03,0x00,0x00,0x00,0x00,0x80,0x01,
 0x00,0x00,0x00,0x38,0x00,0x00,0x00,0x00,0x80,0x01,0x00,0x00,0x00,0x00,0x00,
 0x07,0x00,0x00,0x00,0x38,0x00,0x00,0x00,0x00,0xc0,0x00,0x00,0x00,0x00,0x00,
 0x00,0x0c,0x00,0x00,0x00,0x38,0x00,0x00,0x00,0x00,0x70,0x00,0x00,0x00,0x00,
 0x00,0x00,0x38,0x00,0x00,0x00,0x18,0x00,0x00,0x00,0x00,0x18,0x00,0x00,0x00,
 0x00,0x00,0x00,0x70,0x00,0x00,0x00,0x38,0x00,0x00,0x00,0x00,0x06,0x00,0x00,
 0x00,0x00,0x00,0x00,0xc0,0x01,0x00,0x00,0x30,0x00,0x00,0x00,0x80,0x03,0x00,
 0x00,0x00,0x00,0x00,0x00,0x00,0x07,0x00,0x00,0x00,0x00,0x00,0x00,0xc0,0x00,
 0x00,0x00,0x00,0x00,0x00,0x00,0x00,0x1e,0x00,0x00,0x00,0x00,0x00,0x00,0x70,
 0x00,0x00,0x00,0x00,0x00,0x00,0x00,0x00,0x78,0x00,0x00,0x00,0x00,0x00,0x00,
 0x1c,0x00,0x00,0x00,0x00,0x00,0x00,0x00,0x00,0xe0,0x01,0x00,0x00,0x00,0x00,
 0x00,0x07,0x00,0x00,0x00,0x00,0x00,0x00,0x00,0x00,0x80,0x07,0x00,0x00,0x00,
 0x00,0xe0,0x01,0x00,0x00,0x00,0x00,0x00,0x00,0x00,0x00,0x00,0x7c,0x00,0x00,
 0x00,0x00,0x3e,0x00,0x00,0x00,0x00,0x00,0x00,0x00,0x00,0x00,0x00,0xe0,0x07,
 0x00,0x00,0xe0,0x07,0x00,0x00,0x00,0x00,0x00,0x00,0x00,0x00,0x00,0x00,0x00,
 0xfe,0x01,0x80,0x3f,0x00,0x00,0x00,0x00,0x00,0x00,0x00,0x00,0x00,0x00,0x00,
 0x00,0x80,0xff,0xff,0x00,0x00,0x00,0x00,0x00,0x00,0x00,0x00,0x00,0x00,0x00,
 0x00,0x00,0x00,0x00,0x00,0x00,0x00,0x00,0x00,0x00,0x00,0x00};
