#define edit_mode_width 16
#define edit_mode_height 16
static unsigned char edit_mode_bits[] = {
   0x00, 0x00, 0x00, 0x7e, 0x00, 0x60, 0x00, 0x70, 0x00, 0x58, 0x00, 0x4c,
   0x00, 0x46, 0x00, 0x03, 0x80, 0x01, 0xc0, 0x00, 0x60, 0x00, 0x30, 0x00,
   0x18, 0x00, 0x0c, 0x00, 0x06, 0x00, 0x00, 0x00};
