#define save_width 16
#define save_height 16
static unsigned char save_bits[] = {
   0x00, 0x00, 0xfe, 0x7f, 0xaa, 0x5a, 0x5a, 0x55, 0xaa, 0x5a, 0x5a, 0x55,
   0xaa, 0x5a, 0x5a, 0x55, 0xfa, 0x5f, 0x02, 0x40, 0xf2, 0x5f, 0xf2, 0x53,
   0xf2, 0x53, 0xf2, 0x53, 0xfc, 0x7f, 0x00, 0x00};
