#define print_width 16
#define print_height 16
static unsigned char print_bits[] = {
   0x00, 0x00, 0xe0, 0x3f, 0x10, 0x20, 0xd0, 0x17, 0x08, 0x10, 0xe8, 0x7b,
   0x04, 0xa8, 0xfe, 0xd7, 0x01, 0xa8, 0xff, 0x9f, 0x01, 0x50, 0x01, 0x70,
   0xff, 0x5f, 0x02, 0x28, 0xfc, 0x1f, 0x00, 0x00};
