#define new_width 16
#define new_height 16
static unsigned char new_bits[] = {
   0x00, 0x00, 0xf8, 0x07, 0x08, 0x0c, 0x08, 0x14, 0x08, 0x3c, 0x08, 0x20,
   0x08, 0x20, 0x08, 0x20, 0x08, 0x20, 0x08, 0x20, 0x08, 0x20, 0x08, 0x20,
   0x08, 0x20, 0xf8, 0x3f, 0x00, 0x00, 0x00, 0x00};
