#define open_width 16
#define open_height 16
static unsigned char open_bits[] = {
   0x00, 0x00, 0x00, 0x0e, 0x00, 0x51, 0x00, 0x60, 0x0e, 0x70, 0xf1, 0x07,
   0x01, 0x04, 0x01, 0x04, 0xe1, 0xff, 0x51, 0x55, 0xa9, 0x2a, 0x55, 0x15,
   0xab, 0x0a, 0xff, 0x07, 0x00, 0x00, 0x00, 0x00};
