#define find_width 16
#define find_height 16
static unsigned char find_bits[] = {
   0x00, 0x00, 0x00, 0x00, 0x00, 0x01, 0x00, 0x01, 0x10, 0x11, 0x20, 0x09,
   0x40, 0x05, 0x80, 0x03, 0xfc, 0x7f, 0x80, 0x03, 0x40, 0x05, 0x20, 0x09,
   0x10, 0x11, 0x00, 0x01, 0x00, 0x01, 0x00, 0x00};
