#define generate_width 24
#define generate_height 16
static unsigned char generate_bits[] = {
   0x00, 0x00, 0x00, 0x70, 0x0e, 0x00, 0xf0, 0x0f, 0x00, 0x70, 0x0e, 0x00,
   0x70, 0x0e, 0x00, 0xa8, 0x16, 0x00, 0xae, 0x75, 0x00, 0xfe, 0x7f, 0x00,
   0xae, 0x75, 0x00, 0xa8, 0x16, 0x00, 0x70, 0x0e, 0x00, 0x70, 0x0e, 0xff,
   0xf0, 0x0f, 0x7e, 0x70, 0x0e, 0x3c, 0x00, 0x00, 0x18, 0x00, 0x00, 0x00};
