#define mini_inspector_width 24
#define mini_inspector_height 16
static unsigned char mini_inspector_bits[] = {
   0x00, 0x00, 0x00, 0xe0, 0x03, 0x00, 0x18, 0x0c, 0x00, 0x04, 0x10, 0x00,
   0xc4, 0x11, 0x00, 0x82, 0x20, 0x00, 0x82, 0x20, 0x00, 0x82, 0x20, 0x00,
   0x82, 0x20, 0x00, 0x82, 0x20, 0x00, 0xc4, 0x11, 0x00, 0x04, 0x10, 0xff,
   0x18, 0x0c, 0x7e, 0xe0, 0x03, 0x3c, 0x00, 0x00, 0x18, 0x00, 0x00, 0x00};
