#define no_of_nodes_width 7
#define no_of_nodes_height 7
static unsigned char no_of_nodes_bits[] = {
   0x1c, 0x3e, 0x7f, 0x7f, 0x7f, 0x3e, 0x1c};
