#define circle.xbm_width 32
#define circle.xbm_height 32
static unsigned char circle.xbm_bits[] = {
   0x00, 0x00, 0x00, 0x00, 0x00, 0xf8, 0x0f, 0x00, 0x00, 0x06, 0x30, 0x00,
   0x80, 0x01, 0xc0, 0x00, 0x40, 0x00, 0x00, 0x01, 0x30, 0x00, 0x00, 0x06,
   0x10, 0x00, 0x00, 0x04, 0x08, 0x00, 0x00, 0x08, 0x04, 0x00, 0x00, 0x10,
   0x04, 0x00, 0x00, 0x10, 0x02, 0x00, 0x00, 0x20, 0x02, 0x00, 0x00, 0x20,
   0x01, 0x00, 0x00, 0x40, 0x01, 0x00, 0x00, 0x40, 0x01, 0x00, 0x00, 0x40,
   0x01, 0x00, 0x00, 0x40, 0x01, 0x00, 0x00, 0x40, 0x01, 0x00, 0x00, 0x40,
   0x01, 0x00, 0x00, 0x40, 0x01, 0x00, 0x00, 0x40, 0x01, 0x00, 0x00, 0x40,
   0x02, 0x00, 0x00, 0x20, 0x02, 0x00, 0x00, 0x20, 0x04, 0x00, 0x00, 0x10,
   0x04, 0x00, 0x00, 0x10, 0x08, 0x00, 0x00, 0x08, 0x10, 0x00, 0x00, 0x04,
   0x30, 0x00, 0x00, 0x06, 0x40, 0x00, 0x00, 0x01, 0x80, 0x01, 0xc0, 0x00,
   0x00, 0x06, 0x30, 0x00, 0x00, 0xf8, 0x0f, 0x00};
