#define paste_width 16
#define paste_height 16
static unsigned char paste_bits[] = {
   0x00, 0x00, 0xe0, 0x01, 0x3e, 0x1f, 0xd1, 0x22, 0x09, 0x24, 0xf9, 0x27,
   0x01, 0x20, 0xc1, 0x3f, 0x41, 0x30, 0x41, 0x50, 0x41, 0xf7, 0x41, 0x80,
   0x41, 0xbf, 0x7e, 0x80, 0xc0, 0xff, 0x00, 0x00};
