#define rotate_mode_width 16
#define rotate_mode_height 16
static unsigned char rotate_mode_bits[] = {
   0x00, 0x00, 0xe2, 0x07, 0xf6, 0x0f, 0x3e, 0x18, 0x1e, 0x10, 0x3e, 0x00,
   0x7e, 0x00, 0x00, 0x00, 0x00, 0x00, 0x00, 0x7e, 0x00, 0x7c, 0x08, 0x78,
   0x18, 0x7c, 0xf0, 0x6f, 0xe0, 0x47, 0x00, 0x00};
