#define scale_mode_width 16
#define scale_mode_height 16
static unsigned char scale_mode_bits[] = {
   0x00, 0x00, 0x7e, 0x7e, 0x3e, 0x7c, 0x1e, 0x78, 0x3e, 0x7c, 0x76, 0x6e,
   0xe2, 0x47, 0xc0, 0x03, 0xc0, 0x03, 0xe2, 0x47, 0x76, 0x6e, 0x3e, 0x7c,
   0x1e, 0x78, 0x3e, 0x7c, 0x7e, 0x7e, 0x00, 0x00};
