#define select_width 24
#define select_height 16
static unsigned char select_bits[] = {
   0x00, 0x00, 0x00, 0xaa, 0x2a, 0x00, 0x00, 0x41, 0x00, 0x02, 0x08, 0x00,
   0x00, 0x41, 0x00, 0x02, 0x08, 0x00, 0x00, 0x41, 0x00, 0x02, 0x08, 0x00,
   0x54, 0x41, 0x00, 0x02, 0x08, 0x00, 0x00, 0x40, 0x00, 0xaa, 0x0a, 0xff,
   0x00, 0x40, 0x7e, 0x02, 0x00, 0x3c, 0x54, 0x55, 0x18, 0x00, 0x00, 0x00};
