#define text_mode_width 16
#define text_mode_height 16
static char text_mode_bits[] = {
  0x00, 0x00, 0x80, 0x00, 0x80, 0x00, 0xc0, 0x01, 0xc0, 0x01, 0x60, 0x03, 
  0x60, 0x03, 0x30, 0x06, 0xf0, 0x07, 0xf0, 0x07, 0x18, 0x0c, 0x18, 0x0c, 
  0x0c, 0x18, 0x0c, 0x18, 0x00, 0x00, 0x00, 0x00, };
