#define view_mode_width 16
#define view_mode_height 16
static unsigned char view_mode_bits[] = {
   0x00, 0x00, 0x06, 0x40, 0x0c, 0x60, 0x18, 0x30, 0x30, 0x18, 0x60, 0x0c,
   0xc0, 0x06, 0x80, 0x03, 0x80, 0x03, 0xc0, 0x06, 0x60, 0x0c, 0x30, 0x18,
   0x18, 0x30, 0x0c, 0x60, 0x06, 0x40, 0x00, 0x00};
