#define mini-zoom_width 16
#define mini-zoom_height 16
static unsigned char mini-zoom_bits[] = {
   0x00, 0x00, 0x00, 0x00, 0xf0, 0x00, 0x08, 0x01, 0x24, 0x02, 0x14, 0x02,
   0x04, 0x02, 0x04, 0x02, 0x08, 0x03, 0xf0, 0x07, 0x00, 0x0e, 0x00, 0x1c,
   0x00, 0x38, 0x00, 0x10, 0x00, 0x00, 0x00, 0x00};
