#define create_mode_icon_width 32
#define create_mode_icon_height 32
static unsigned char create_mode_icon_bits[] = {
   0x80, 0x03, 0xc0, 0x01, 0x40, 0x04, 0x20, 0x02, 0x20, 0x08, 0x10, 0x04,
   0x20, 0xf8, 0x1f, 0x04, 0x20, 0x08, 0x10, 0x04, 0x40, 0x04, 0x20, 0x02,
   0x80, 0x03, 0xc0, 0x01, 0x00, 0x01, 0x80, 0x00, 0x00, 0x01, 0x80, 0x00,
   0x00, 0x01, 0x80, 0x00, 0x00, 0x01, 0x80, 0x00, 0x00, 0x01, 0x80, 0x00,
   0x00, 0x01, 0x80, 0x00, 0x00, 0x01, 0x80, 0x00, 0x00, 0x01, 0x80, 0x00,
   0x80, 0x03, 0xc0, 0x01, 0x40, 0x04, 0x20, 0x02, 0x20, 0x08, 0x10, 0x04,
   0x20, 0xf8, 0x1f, 0x04, 0x20, 0x08, 0x10, 0x04, 0x40, 0x04, 0x20, 0x02,
   0x80, 0x03, 0xc0, 0x01, 0x00, 0x00, 0x00, 0x00, 0x00, 0x00, 0x00, 0x00,
   0x00, 0x00, 0x00, 0x00, 0x1c, 0x00, 0x00, 0x01, 0x82, 0x62, 0x98, 0x67,
   0x81, 0x93, 0x20, 0x91, 0x81, 0xf0, 0x38, 0xf1, 0x81, 0x10, 0x24, 0x11,
   0x82, 0x10, 0x24, 0x11, 0x9c, 0xe0, 0x58, 0xe6};
