#define edit_mode_icon_width 32
#define edit_mode_icon_height 32
static unsigned char edit_mode_icon_bits[] = {
   0x00, 0x00, 0xff, 0x07, 0x00, 0x00, 0x00, 0x06, 0x00, 0x00, 0x00, 0x05,
   0x00, 0x00, 0x80, 0x04, 0x00, 0x00, 0x40, 0x04, 0x00, 0x00, 0x20, 0x04,
   0x00, 0x00, 0x10, 0x04, 0x00, 0x00, 0x08, 0x04, 0x00, 0x00, 0x04, 0x04,
   0x00, 0x00, 0x02, 0x04, 0x00, 0x00, 0x01, 0x04, 0x00, 0x80, 0x00, 0x00,
   0x00, 0x40, 0x00, 0x00, 0x00, 0x20, 0x00, 0x00, 0x00, 0x10, 0x00, 0x00,
   0x00, 0x08, 0x00, 0x00, 0x00, 0x04, 0x00, 0x00, 0x00, 0x02, 0x00, 0x00,
   0x00, 0x01, 0x00, 0x00, 0x80, 0x00, 0x00, 0x00, 0x40, 0x00, 0x00, 0x00,
   0x20, 0x00, 0x00, 0x00, 0x00, 0x00, 0x00, 0x00, 0x00, 0x00, 0x00, 0x00,
   0x00, 0x00, 0x09, 0x00, 0x80, 0x07, 0x41, 0x00, 0x80, 0xc0, 0xe9, 0x01,
   0x80, 0x20, 0x49, 0x00, 0x80, 0x23, 0x49, 0x00, 0x80, 0x20, 0x49, 0x00,
   0x80, 0xa0, 0x49, 0x00, 0x80, 0x47, 0x89, 0x01};
